<svg xmlns="http://www.w3.org/2000/svg" viewBox="0 0 1800 1800" width="320" height="320">
  <!-- 简洁版本 - 无背景渐变 -->
  
  <defs>
    <!-- 原有的logo渐变 -->
    <linearGradient id="blueGrad" x1="0%" y1="0%" x2="100%" y2="100%">
      <stop offset="0%" style="stop-color:#00baec;stop-opacity:1" />
      <stop offset="100%" style="stop-color:#0059cc;stop-opacity:1" />
    </linearGradient>
    <linearGradient id="cyanGrad" x1="0%" y1="0%" x2="100%" y2="100%">
      <stop offset="0%" style="stop-color:#00dac7;stop-opacity:1" />
      <stop offset="100%" style="stop-color:#00baec;stop-opacity:1" />
    </linearGradient>
    
    <!-- 发光效果 -->
    <filter id="glow">
      <feGaussianBlur stdDeviation="3" result="coloredBlur"/>
      <feMerge> 
        <feMergeNode in="coloredBlur"/>
        <feMergeNode in="SourceGraphic"/>
      </feMerge>
    </filter>
  </defs>
  
  <!-- 交叉图案 - 保持原有颜色和效果 -->
  <g transform="translate(900, 900) scale(16.2) translate(-51, -50)" filter="url(#glow)">
    <!-- 蓝色条纹 - 使用渐变 -->
    <path d="M69.3 59.41l-9.89 9.89L51 77.73 30.46 98.26A6 6 0 0 1 22 89.83L42.56 69.3 51 60.88l9.9-9.9z" fill="url(#blueGrad)"/>
    <path d="M102 24.28a6 6 0 0 1-1.75 4.21L77.72 51l-8.42-8.44 22.5-22.5a6 6 0 0 1 10.2 4.22z" fill="url(#blueGrad)"/>
    
    <!-- 青色条纹 - 使用渐变 -->
    <path d="M83.64 6a5.94 5.94 0 0 1-1.74 4.21L41.08 51l-8.42-8.42 9.9-9.89L51 24.24 73.48 1.75A6 6 0 0 1 83.64 6z" fill="url(#cyanGrad)"/>
    <path d="M32.66 59.41L12.13 79.93a6 6 0 0 1-8.42-8.42L24.24 51z" fill="url(#cyanGrad)"/>
    
    <!-- 浅蓝色条纹 -->
    <path d="M51 24.24l-8.42 8.43-22.5-22.5A6 6 0 0 1 24.28 0a5.89 5.89 0 0 1 4.2 1.75z" fill="#00baec"/>
    <path d="M98.25 79.93a5.94 5.94 0 0 1-8.42 0L51 41.09l8.42-8.42 9.9 9.89 8.4 8.44 20.53 20.51a6 6 0 0 1 0 8.42z" fill="#00baec"/>
    
    <!-- 深蓝色条纹 -->
    <path d="M51 60.88l-8.44 8.42L1.74 28.49a6 6 0 0 1 8.43-8.43l22.49 22.5L41.08 51z" fill="#00abd8"/>
    <path d="M79.93 98.26a6 6 0 0 1-8.42 0L51 77.73l8.42-8.43 20.51 20.53a6 6 0 0 1 0 8.43z" fill="#00abd8"/>
  </g>
</svg>