<svg data-v-0dd9719b="" version="1.0" xmlns="http://www.w3.org/2000/svg" xmlns:xlink="http://www.w3.org/1999/xlink" width="100%" height="100%" viewBox="0 0 340.000000 250.000000" preserveAspectRatio="xMidYMid meet" color-interpolation-filters="sRGB" style="margin: auto;"> <rect data-v-0dd9719b="" x="0" y="0" width="100%" height="100%" fill="#fff" fill-opacity="1" class="background"></rect> <rect data-v-0dd9719b="" x="0" y="0" width="100%" height="100%" fill="url(#watermark)" fill-opacity="1" class="watermarklayer"></rect> <g data-v-0dd9719b="" fill="#333" class="icon-text-wrapper icon-svg-group iconsvg" transform="translate(62.92499542236328,95.46575355529785)"><g class="iconsvg-imagesvg" transform="translate(0,0)"><g><rect fill="#333" fill-opacity="0" stroke-width="2" x="0" y="0" width="60" height="59.06848991405534" class="image-rect"></rect> <svg x="0" y="0" width="60" height="59.06848991405534" filtersec="colorsb2691092612" class="image-svg-svg primary" style="overflow: visible;"><svg xmlns="http://www.w3.org/2000/svg" viewBox="0.4385022521018982 -0.000009216904800268821 101.5615005493164 99.98497772216797"><path d="M69.3 59.41l-9.89 9.89L51 77.73 30.46 98.26A6 6 0 0 1 22 89.83L42.56 69.3 51 60.88l9.9-9.9zM102 24.28a6 6 0 0 1-1.75 4.21L77.72 51l-8.42-8.44 22.5-22.5a6 6 0 0 1 10.2 4.22z" fill="#0059cc"></path><path d="M83.64 6a5.94 5.94 0 0 1-1.74 4.21L41.08 51l-8.42-8.42 9.9-9.89L51 24.24 73.48 1.75A6 6 0 0 1 83.64 6zM32.66 59.41L12.13 79.93a6 6 0 0 1-8.42-8.42L24.24 51z" fill="#00dac7"></path><path d="M51 24.24l-8.42 8.43-22.5-22.5A6 6 0 0 1 24.28 0a5.89 5.89 0 0 1 4.2 1.75zM98.25 79.93a5.94 5.94 0 0 1-8.42 0L51 41.09l8.42-8.42 9.9 9.89 8.4 8.44 20.53 20.51a6 6 0 0 1 0 8.42z" fill="#00baec"></path><path d="M51 60.88l-8.44 8.42L1.74 28.49a6 6 0 0 1 8.43-8.43l22.49 22.5L41.08 51zM79.93 98.26a6 6 0 0 1-8.42 0L51 77.73l8.42-8.43 20.51 20.53a6 6 0 0 1 0 8.43z" fill="#00abd8"></path></svg></svg> <!----></g></g> <g transform="translate(67,0.3792438507080078)"><g data-gra="path-name" fill-rule="" class="tp-name iconsvg-namesvg"><g transform="scale(1)"><g><path d="M36.2-46.02L36.2-46.02 36.2-44.72 13.97-1.5 20.73-1.5Q22.95-1.5 25.19-2.21 27.43-2.93 29.35-4.55 31.27-6.17 32.63-8.87 34-11.57 34.45-15.6L34.45-15.6 35.95-15.6Q35.75-13.39 35.75-9.88L35.75-9.88Q35.75-8.38 35.81-5.66 35.88-2.93 36.2 0L36.2 0Q32.63-0.13 28.11-0.16 23.6-0.2 20.02-0.2L20.02-0.2Q15.79-0.2 11.18-0.16 6.57-0.13 2.54 0L2.54 0 2.54-1.3 24.83-44.52 17.81-44.52Q14.56-44.52 11.83-43.32 9.1-42.12 7.28-39.23 5.46-36.34 4.81-31.2L4.81-31.2 3.31-31.2Q3.45-32.11 3.48-33.41 3.51-34.71 3.51-36.14L3.51-36.14Q3.51-37.63 3.41-40.37 3.31-43.09 3.06-46.02L3.06-46.02Q6.31-45.89 10.37-45.86 14.43-45.83 17.68-45.83L17.68-45.83Q22.04-45.83 26.98-45.86 31.92-45.89 36.2-46.02ZM37.64 12.22L37.64 12.22 37.64 10.92Q40.23 10.66 42.05 9.39 43.88 8.13 44.85 5.07 45.83 2.02 45.83-3.51L45.83-3.51 45.83-39.13Q45.83-41.54 45.47-42.67 45.11-43.81 44.07-44.23 43.03-44.66 40.95-44.72L40.95-44.72 40.95-46.02Q42.58-45.95 45.21-45.89 47.84-45.83 50.77-45.83L50.77-45.83Q53.69-45.83 56.45-45.89 59.22-45.95 61.04-46.02L61.04-46.02 61.04-44.72Q59.02-44.66 57.95-44.23 56.88-43.81 56.52-42.67 56.16-41.54 56.16-39.13L56.16-39.13 56.16-15.34Q56.16-12.68 56.16-9.59 56.16-6.5 55.93-3.58 55.7-0.65 55.06 1.63L55.06 1.63Q53.76 6.11 49.43 9.17 45.11 12.22 37.64 12.22ZM99.78-46.02L99.78-46.02Q99.52-43.16 99.42-40.5 99.32-37.83 99.32-36.4L99.32-36.4Q99.32-35.1 99.39-33.93 99.45-32.76 99.52-31.98L99.52-31.98 98.02-31.98Q97.37-36.73 96.01-39.49 94.64-42.25 92.46-43.39 90.29-44.52 87.36-44.52L87.36-44.52 84.7-44.52Q82.75-44.52 81.8-44.2 80.86-43.88 80.54-42.93 80.21-41.99 80.21-39.91L80.21-39.91 80.21-6.11Q80.21-4.09 80.54-3.12 80.86-2.15 81.8-1.82 82.75-1.5 84.7-1.5L84.7-1.5 87.88-1.5Q90.81-1.5 93.05-2.76 95.29-4.03 96.88-7.08 98.48-10.14 99.32-15.34L99.32-15.34 100.81-15.34Q100.62-13.26 100.62-9.88L100.62-9.88Q100.62-8.38 100.69-5.66 100.75-2.93 101.08 0L101.08 0Q97.76-0.13 93.6-0.16 89.44-0.2 86.19-0.2L86.19-0.2Q83.98-0.2 80.34-0.2 76.7-0.2 72.61-0.16 68.51-0.13 65 0L65 0 65-1.3Q67.08-1.43 68.12-1.82 69.16-2.21 69.52-3.38 69.88-4.55 69.88-6.89L69.88-6.89 69.88-39.13Q69.88-41.54 69.52-42.67 69.16-43.81 68.09-44.23 67.02-44.66 65-44.72L65-44.72 65-46.02Q68.51-45.95 72.61-45.89 76.7-45.83 80.34-45.83 83.98-45.83 86.19-45.83L86.19-45.83Q89.18-45.83 92.98-45.86 96.79-45.89 99.78-46.02ZM78.26-23.79L89.64-23.79Q89.64-23.79 89.64-23.14 89.64-22.49 89.64-22.49L89.64-22.49 78.26-22.49Q78.26-22.49 78.26-23.14 78.26-23.79 78.26-23.79L78.26-23.79ZM90.03-32.37L91.52-32.37Q91.26-28.67 91.29-26.71 91.33-24.77 91.33-23.14L91.33-23.14Q91.33-21.52 91.39-19.57 91.46-17.62 91.72-13.91L91.72-13.91 90.22-13.91Q89.9-16.19 89.02-18.14 88.14-20.09 86.52-21.29 84.89-22.49 82.29-22.49L82.29-22.49 82.29-23.79Q84.89-23.79 86.45-25.22 88.01-26.65 88.86-28.63 89.7-30.62 90.03-32.37L90.03-32.37ZM123.44-46.09L123.44-46.09 123.44-44.72Q120.51-44.72 119.7-44.17 118.89-43.62 119.8-42.25L119.8-42.25 145.53-4.62Q146.84-2.79 147.62-2.15 148.4-1.5 149.69-1.36L149.69-1.36 149.69 0Q148.4-0.07 145.93-0.16 143.45-0.26 140.79-0.26L140.79-0.26Q137.87-0.26 134.84-0.16 131.82-0.07 130.32 0L130.32 0 130.32-1.36Q133.31-1.36 134.19-1.79 135.07-2.21 134.16-3.58L134.16-3.58 108.36-41.47Q107.12-43.36 106.34-44.01 105.56-44.66 104.19-44.72L104.19-44.72 104.19-46.09Q105.56-46.02 108.19-45.92 110.83-45.83 113.49-45.83L113.49-45.83Q116.42-45.83 119.11-45.92 121.81-46.02 123.44-46.09ZM113.75-9.23L124.02-23.14Q124.02-23.14 124.28-22.3 124.54-21.45 124.54-21.45L124.54-21.45 118.04-12.54Q115.44-9.04 115.11-6.6 114.79-4.16 116.25-2.83 117.72-1.5 120.58-1.3L120.58-1.3 120.58 0Q119.34-0.07 117.33-0.1 115.31-0.13 113.36-0.16 111.41-0.2 110.31-0.2L110.31-0.2Q106.41-0.2 104.33 0L104.33 0 104.33-1.3Q106.6-2.08 108.94-4.06 111.28-6.04 113.75-9.23L113.75-9.23ZM146.77-46.02L146.77-46.02 146.77-44.72Q144.63-44.13 142.51-42.25 140.4-40.37 138.58-37.9L138.58-37.9 128.05-23.86Q128.05-23.86 127.82-24.7 127.59-25.55 127.59-25.55L127.59-25.55 134.29-34.58Q138-39.33 137.28-41.93 136.56-44.52 132.6-44.72L132.6-44.72 132.6-46.02Q134.49-45.95 136.82-45.89 139.16-45.83 140.79-45.83L140.79-45.83Q144.69-45.83 146.77-46.02Z" transform="translate(-2.5399999618530273, 46.09000015258789)"></path></g> <!----> <!----> <!----> <!----> <!----> <!----> <!----></g></g> <!----></g></g><defs v-gra="od"></defs></svg>